<mxfile host="app.diagrams.net" modified="2023-02-23T14:53:52.166Z" agent="5.0 (Windows)" etag="3W28oL5iW23U5FrgGWhJ" version="20.8.23" type="github">
  <diagram name="Page-1" id="e7e014a7-5840-1c2e-5031-d8a46d1fe8dd">
    <mxGraphModel dx="1154" dy="514" grid="1" gridSize="10" guides="1" tooltips="1" connect="1" arrows="1" fold="1" page="1" pageScale="1" pageWidth="1169" pageHeight="826" background="none" math="0" shadow="0">
      <root>
        <mxCell id="0" />
        <mxCell id="1" parent="0" />
        <mxCell id="L-Oy49CxzgtTOeUKxRRn-44" style="edgeStyle=orthogonalEdgeStyle;rounded=0;orthogonalLoop=1;jettySize=auto;html=1;" edge="1" parent="1" source="L-Oy49CxzgtTOeUKxRRn-41" target="L-Oy49CxzgtTOeUKxRRn-42">
          <mxGeometry relative="1" as="geometry" />
        </mxCell>
        <mxCell id="L-Oy49CxzgtTOeUKxRRn-41" value="" style="ellipse;html=1;shape=endState;fillColor=#000000;strokeColor=#ff0000;" vertex="1" parent="1">
          <mxGeometry x="555" y="70" width="30" height="30" as="geometry" />
        </mxCell>
        <mxCell id="L-Oy49CxzgtTOeUKxRRn-42" value="Inlog gegevens invoeren" style="rounded=1;whiteSpace=wrap;html=1;arcSize=40;fontColor=#000000;fillColor=#ffffc0;strokeColor=#ff0000;" vertex="1" parent="1">
          <mxGeometry x="510" y="140" width="120" height="40" as="geometry" />
        </mxCell>
        <mxCell id="L-Oy49CxzgtTOeUKxRRn-43" value="" style="edgeStyle=orthogonalEdgeStyle;html=1;verticalAlign=bottom;endArrow=open;endSize=8;strokeColor=#ff0000;rounded=0;" edge="1" source="L-Oy49CxzgtTOeUKxRRn-42" parent="1">
          <mxGeometry relative="1" as="geometry">
            <mxPoint x="570" y="230" as="targetPoint" />
          </mxGeometry>
        </mxCell>
        <mxCell id="L-Oy49CxzgtTOeUKxRRn-51" value="Heeft email en wachtwoord" style="rhombus;whiteSpace=wrap;html=1;fontColor=#000000;fillColor=#ffffc0;strokeColor=#ff0000;" vertex="1" parent="1">
          <mxGeometry x="479.37" y="230" width="178.75" height="60" as="geometry" />
        </mxCell>
        <mxCell id="L-Oy49CxzgtTOeUKxRRn-52" value="no" style="edgeStyle=orthogonalEdgeStyle;html=1;align=left;verticalAlign=bottom;endArrow=open;endSize=8;strokeColor=#ff0000;rounded=0;entryX=1;entryY=0.5;entryDx=0;entryDy=0;" edge="1" source="L-Oy49CxzgtTOeUKxRRn-51" parent="1" target="L-Oy49CxzgtTOeUKxRRn-42">
          <mxGeometry x="-1" relative="1" as="geometry">
            <mxPoint x="690" y="160" as="targetPoint" />
            <Array as="points">
              <mxPoint x="750" y="250" />
              <mxPoint x="750" y="160" />
            </Array>
          </mxGeometry>
        </mxCell>
        <mxCell id="L-Oy49CxzgtTOeUKxRRn-53" value="yes" style="edgeStyle=orthogonalEdgeStyle;html=1;align=left;verticalAlign=top;endArrow=open;endSize=8;strokeColor=#ff0000;rounded=0;" edge="1" source="L-Oy49CxzgtTOeUKxRRn-51" parent="1">
          <mxGeometry x="-1" relative="1" as="geometry">
            <mxPoint x="570" y="310" as="targetPoint" />
          </mxGeometry>
        </mxCell>
        <mxCell id="L-Oy49CxzgtTOeUKxRRn-56" value="Bestaat account? " style="rhombus;whiteSpace=wrap;html=1;fontColor=#000000;fillColor=#ffffc0;strokeColor=#ff0000;" vertex="1" parent="1">
          <mxGeometry x="497.5" y="313" width="142.5" height="40" as="geometry" />
        </mxCell>
        <mxCell id="L-Oy49CxzgtTOeUKxRRn-57" value="no" style="edgeStyle=orthogonalEdgeStyle;html=1;align=left;verticalAlign=bottom;endArrow=open;endSize=8;strokeColor=#ff0000;rounded=0;" edge="1" source="L-Oy49CxzgtTOeUKxRRn-56" parent="1" target="L-Oy49CxzgtTOeUKxRRn-42">
          <mxGeometry x="-1" relative="1" as="geometry">
            <mxPoint x="720" y="160" as="targetPoint" />
            <Array as="points">
              <mxPoint x="750" y="333" />
              <mxPoint x="750" y="160" />
            </Array>
          </mxGeometry>
        </mxCell>
        <mxCell id="L-Oy49CxzgtTOeUKxRRn-58" value="yes" style="edgeStyle=orthogonalEdgeStyle;html=1;align=left;verticalAlign=top;endArrow=open;endSize=8;strokeColor=#ff0000;rounded=0;" edge="1" source="L-Oy49CxzgtTOeUKxRRn-56" parent="1">
          <mxGeometry x="-0.6338" y="31" relative="1" as="geometry">
            <mxPoint x="570" y="390" as="targetPoint" />
            <mxPoint as="offset" />
          </mxGeometry>
        </mxCell>
        <mxCell id="L-Oy49CxzgtTOeUKxRRn-64" value="Account inloggen met gegevens" style="rounded=1;whiteSpace=wrap;html=1;arcSize=40;fontColor=#000000;fillColor=#ffffc0;strokeColor=#ff0000;" vertex="1" parent="1">
          <mxGeometry x="505" y="393" width="130" height="40" as="geometry" />
        </mxCell>
        <mxCell id="L-Oy49CxzgtTOeUKxRRn-65" value="" style="edgeStyle=orthogonalEdgeStyle;html=1;verticalAlign=bottom;endArrow=open;endSize=8;strokeColor=#ff0000;rounded=0;" edge="1" source="L-Oy49CxzgtTOeUKxRRn-64" parent="1">
          <mxGeometry relative="1" as="geometry">
            <mxPoint x="570" y="450" as="targetPoint" />
          </mxGeometry>
        </mxCell>
        <mxCell id="L-Oy49CxzgtTOeUKxRRn-66" value="Wachtwoord &amp;amp; email correct?" style="rhombus;whiteSpace=wrap;html=1;fontColor=#000000;fillColor=#ffffc0;strokeColor=#ff0000;" vertex="1" parent="1">
          <mxGeometry x="500" y="450" width="140" height="90" as="geometry" />
        </mxCell>
        <mxCell id="L-Oy49CxzgtTOeUKxRRn-67" value="no" style="edgeStyle=orthogonalEdgeStyle;html=1;align=left;verticalAlign=bottom;endArrow=open;endSize=8;strokeColor=#ff0000;rounded=0;" edge="1" source="L-Oy49CxzgtTOeUKxRRn-66" parent="1" target="L-Oy49CxzgtTOeUKxRRn-42">
          <mxGeometry x="-1" relative="1" as="geometry">
            <mxPoint x="750" y="290" as="targetPoint" />
            <Array as="points">
              <mxPoint x="750" y="495" />
              <mxPoint x="750" y="160" />
            </Array>
          </mxGeometry>
        </mxCell>
        <mxCell id="L-Oy49CxzgtTOeUKxRRn-68" value="yes" style="edgeStyle=orthogonalEdgeStyle;html=1;align=left;verticalAlign=top;endArrow=open;endSize=8;strokeColor=#ff0000;rounded=0;" edge="1" source="L-Oy49CxzgtTOeUKxRRn-66" parent="1">
          <mxGeometry x="-1" y="30" relative="1" as="geometry">
            <mxPoint x="570" y="570" as="targetPoint" />
            <mxPoint as="offset" />
          </mxGeometry>
        </mxCell>
        <mxCell id="L-Oy49CxzgtTOeUKxRRn-69" value="Log account in" style="rounded=1;whiteSpace=wrap;html=1;arcSize=40;fontColor=#000000;fillColor=#ffffc0;strokeColor=#ff0000;" vertex="1" parent="1">
          <mxGeometry x="510" y="570" width="120" height="40" as="geometry" />
        </mxCell>
        <mxCell id="L-Oy49CxzgtTOeUKxRRn-70" value="" style="edgeStyle=orthogonalEdgeStyle;html=1;verticalAlign=bottom;endArrow=open;endSize=8;strokeColor=#ff0000;rounded=0;" edge="1" source="L-Oy49CxzgtTOeUKxRRn-69" parent="1">
          <mxGeometry relative="1" as="geometry">
            <mxPoint x="710" y="590" as="targetPoint" />
          </mxGeometry>
        </mxCell>
        <mxCell id="L-Oy49CxzgtTOeUKxRRn-71" value="Fout opgetreden?" style="rhombus;whiteSpace=wrap;html=1;fontColor=#000000;fillColor=#ffffc0;strokeColor=#ff0000;" vertex="1" parent="1">
          <mxGeometry x="710" y="570" width="140" height="40" as="geometry" />
        </mxCell>
        <mxCell id="L-Oy49CxzgtTOeUKxRRn-72" value="no" style="edgeStyle=orthogonalEdgeStyle;html=1;align=left;verticalAlign=bottom;endArrow=open;endSize=8;strokeColor=#ff0000;rounded=0;" edge="1" source="L-Oy49CxzgtTOeUKxRRn-71" parent="1">
          <mxGeometry x="-1" relative="1" as="geometry">
            <mxPoint x="890" y="590" as="targetPoint" />
          </mxGeometry>
        </mxCell>
        <mxCell id="L-Oy49CxzgtTOeUKxRRn-73" value="yes" style="edgeStyle=orthogonalEdgeStyle;html=1;align=left;verticalAlign=top;endArrow=open;endSize=8;strokeColor=#ff0000;rounded=0;" edge="1" source="L-Oy49CxzgtTOeUKxRRn-71" parent="1" target="L-Oy49CxzgtTOeUKxRRn-42">
          <mxGeometry x="-0.9286" y="-20" relative="1" as="geometry">
            <mxPoint x="870" y="670" as="targetPoint" />
            <Array as="points">
              <mxPoint x="780" y="520" />
              <mxPoint x="750" y="520" />
              <mxPoint x="750" y="160" />
            </Array>
            <mxPoint as="offset" />
          </mxGeometry>
        </mxCell>
        <mxCell id="L-Oy49CxzgtTOeUKxRRn-76" value="Success message" style="text;strokeColor=none;fillColor=none;align=left;verticalAlign=top;spacingLeft=4;spacingRight=4;overflow=hidden;rotatable=0;points=[[0,0.5],[1,0.5]];portConstraint=eastwest;" vertex="1" parent="1">
          <mxGeometry x="890" y="577" width="130" height="26" as="geometry" />
        </mxCell>
        <mxCell id="L-Oy49CxzgtTOeUKxRRn-79" value="Login failed message" style="text;strokeColor=none;fillColor=none;align=left;verticalAlign=top;spacingLeft=4;spacingRight=4;overflow=hidden;rotatable=0;points=[[0,0.5],[1,0.5]];portConstraint=eastwest;" vertex="1" parent="1">
          <mxGeometry x="750" y="490" width="130" height="26" as="geometry" />
        </mxCell>
        <mxCell id="L-Oy49CxzgtTOeUKxRRn-84" style="edgeStyle=orthogonalEdgeStyle;rounded=0;orthogonalLoop=1;jettySize=auto;html=1;" edge="1" parent="1" source="L-Oy49CxzgtTOeUKxRRn-80" target="L-Oy49CxzgtTOeUKxRRn-83">
          <mxGeometry relative="1" as="geometry" />
        </mxCell>
        <mxCell id="L-Oy49CxzgtTOeUKxRRn-80" value="" style="ellipse;html=1;shape=endState;fillColor=#000000;strokeColor=#ff0000;" vertex="1" parent="1">
          <mxGeometry x="1180" y="80" width="30" height="30" as="geometry" />
        </mxCell>
        <mxCell id="L-Oy49CxzgtTOeUKxRRn-83" value="Start zet" style="rounded=1;whiteSpace=wrap;html=1;arcSize=40;fontColor=#000000;fillColor=#ffffc0;strokeColor=#ff0000;" vertex="1" parent="1">
          <mxGeometry x="1135" y="140" width="120" height="40" as="geometry" />
        </mxCell>
        <mxCell id="L-Oy49CxzgtTOeUKxRRn-85" value="" style="endArrow=classic;html=1;rounded=0;exitX=0.5;exitY=1;exitDx=0;exitDy=0;" edge="1" parent="1" source="L-Oy49CxzgtTOeUKxRRn-83">
          <mxGeometry width="50" height="50" relative="1" as="geometry">
            <mxPoint x="1060" y="280" as="sourcePoint" />
            <mxPoint x="1195" y="210" as="targetPoint" />
          </mxGeometry>
        </mxCell>
        <mxCell id="L-Oy49CxzgtTOeUKxRRn-121" style="edgeStyle=orthogonalEdgeStyle;rounded=0;orthogonalLoop=1;jettySize=auto;html=1;" edge="1" parent="1" source="L-Oy49CxzgtTOeUKxRRn-86" target="L-Oy49CxzgtTOeUKxRRn-118">
          <mxGeometry relative="1" as="geometry" />
        </mxCell>
        <mxCell id="L-Oy49CxzgtTOeUKxRRn-86" value="Damsteen word gesleept" style="rounded=1;whiteSpace=wrap;html=1;arcSize=40;fontColor=#000000;fillColor=#ffffc0;strokeColor=#ff0000;" vertex="1" parent="1">
          <mxGeometry x="1135" y="210" width="120" height="40" as="geometry" />
        </mxCell>
        <mxCell id="L-Oy49CxzgtTOeUKxRRn-105" value="Gesleepte zet&amp;nbsp; mogelijk?" style="rhombus;whiteSpace=wrap;html=1;fontColor=#000000;fillColor=#ffffc0;strokeColor=#ff0000;" vertex="1" parent="1">
          <mxGeometry x="1120" y="547" width="150" height="60" as="geometry" />
        </mxCell>
        <mxCell id="L-Oy49CxzgtTOeUKxRRn-106" value="no" style="edgeStyle=orthogonalEdgeStyle;html=1;align=left;verticalAlign=bottom;endArrow=open;endSize=8;strokeColor=#ff0000;rounded=0;" edge="1" parent="1" target="L-Oy49CxzgtTOeUKxRRn-83">
          <mxGeometry x="-1" relative="1" as="geometry">
            <mxPoint x="1360" y="450" as="targetPoint" />
            <mxPoint x="1260" y="577" as="sourcePoint" />
            <Array as="points">
              <mxPoint x="1260" y="570" />
              <mxPoint x="1320" y="570" />
              <mxPoint x="1320" y="160" />
            </Array>
          </mxGeometry>
        </mxCell>
        <mxCell id="L-Oy49CxzgtTOeUKxRRn-107" value="yes" style="edgeStyle=orthogonalEdgeStyle;html=1;align=left;verticalAlign=top;endArrow=open;endSize=8;strokeColor=#ff0000;rounded=0;" edge="1" source="L-Oy49CxzgtTOeUKxRRn-105" parent="1">
          <mxGeometry x="-1" relative="1" as="geometry">
            <mxPoint x="1195" y="630" as="targetPoint" />
          </mxGeometry>
        </mxCell>
        <mxCell id="L-Oy49CxzgtTOeUKxRRn-108" value="Damsteen word terug gezet" style="rounded=1;whiteSpace=wrap;html=1;arcSize=40;fontColor=#000000;fillColor=#ffffc0;strokeColor=#ff0000;" vertex="1" parent="1">
          <mxGeometry x="1270" y="270" width="120" height="40" as="geometry" />
        </mxCell>
        <mxCell id="L-Oy49CxzgtTOeUKxRRn-116" value="Zet de steen op goede plek" style="rounded=1;whiteSpace=wrap;html=1;arcSize=40;fontColor=#000000;fillColor=#ffffc0;strokeColor=#ff0000;" vertex="1" parent="1">
          <mxGeometry x="1135" y="630" width="120" height="40" as="geometry" />
        </mxCell>
        <mxCell id="L-Oy49CxzgtTOeUKxRRn-118" value="Status vakje leeg?" style="rhombus;whiteSpace=wrap;html=1;fontColor=#000000;fillColor=#ffffc0;strokeColor=#ff0000;" vertex="1" parent="1">
          <mxGeometry x="920" y="210" width="145" height="40" as="geometry" />
        </mxCell>
        <mxCell id="L-Oy49CxzgtTOeUKxRRn-119" value="no" style="edgeStyle=orthogonalEdgeStyle;html=1;align=left;verticalAlign=bottom;endArrow=open;endSize=8;strokeColor=#ff0000;rounded=0;" edge="1" source="L-Oy49CxzgtTOeUKxRRn-118" parent="1" target="L-Oy49CxzgtTOeUKxRRn-83">
          <mxGeometry x="-1" relative="1" as="geometry">
            <mxPoint x="870" y="240" as="targetPoint" />
            <Array as="points">
              <mxPoint x="995" y="170" />
            </Array>
          </mxGeometry>
        </mxCell>
        <mxCell id="L-Oy49CxzgtTOeUKxRRn-120" value="yes" style="edgeStyle=orthogonalEdgeStyle;html=1;align=left;verticalAlign=top;endArrow=open;endSize=8;strokeColor=#ff0000;rounded=0;" edge="1" source="L-Oy49CxzgtTOeUKxRRn-118" parent="1">
          <mxGeometry x="-1" relative="1" as="geometry">
            <mxPoint x="1020" y="310" as="targetPoint" />
            <Array as="points">
              <mxPoint x="992" y="282" />
              <mxPoint x="992" y="340" />
            </Array>
          </mxGeometry>
        </mxCell>
        <mxCell id="L-Oy49CxzgtTOeUKxRRn-122" value="Geeft melding weer" style="rounded=1;whiteSpace=wrap;html=1;arcSize=40;fontColor=#000000;fillColor=#ffffc0;strokeColor=#ff0000;" vertex="1" parent="1">
          <mxGeometry x="670" y="140" width="120" height="40" as="geometry" />
        </mxCell>
        <mxCell id="L-Oy49CxzgtTOeUKxRRn-125" value="Validation error" style="text;strokeColor=none;fillColor=none;align=left;verticalAlign=top;spacingLeft=4;spacingRight=4;overflow=hidden;rotatable=0;points=[[0,0.5],[1,0.5]];portConstraint=eastwest;" vertex="1" parent="1">
          <mxGeometry x="665" y="114" width="130" height="26" as="geometry" />
        </mxCell>
      </root>
    </mxGraphModel>
  </diagram>
</mxfile>
